<svg width="124" height="19" viewBox="0 0 124 19" fill="none" xmlns="http://www.w3.org/2000/svg">
<path d="M0.848 0.912H7.136C9.936 0.912 12.104 1.656 13.64 3.144C15.192 4.632 15.968 6.728 15.968 9.432C15.968 12.152 15.192 14.264 13.64 15.768C12.104 17.256 9.936 18 7.136 18H0.848V0.912ZM6.944 15.48C10.88 15.48 12.848 13.464 12.848 9.432C12.848 5.432 10.88 3.432 6.944 3.432H3.944V15.48H6.944ZM30.6253 5.88V18H27.6733V16.056C27.3053 16.728 26.7773 17.256 26.0893 17.64C25.4013 18.008 24.6173 18.192 23.7373 18.192C22.6813 18.192 21.7453 17.936 20.9293 17.424C20.1133 16.912 19.4813 16.184 19.0333 15.24C18.5853 14.296 18.3613 13.2 18.3613 11.952C18.3613 10.704 18.5853 9.6 19.0333 8.64C19.4973 7.664 20.1373 6.912 20.9533 6.384C21.7693 5.84 22.6973 5.568 23.7373 5.568C24.6173 5.568 25.4013 5.76 26.0893 6.144C26.7773 6.512 27.3053 7.032 27.6733 7.704V5.88H30.6253ZM24.5533 15.84C25.5453 15.84 26.3133 15.496 26.8573 14.808C27.4013 14.12 27.6733 13.152 27.6733 11.904C27.6733 10.624 27.4013 9.64 26.8573 8.952C26.3133 8.264 25.5373 7.92 24.5293 7.92C23.5373 7.92 22.7613 8.28 22.2013 9C21.6573 9.704 21.3853 10.688 21.3853 11.952C21.3853 13.2 21.6573 14.16 22.2013 14.832C22.7613 15.504 23.5453 15.84 24.5533 15.84ZM44.0926 15.72V18H33.5566V15.912L40.2526 8.136H33.7006V5.88H43.8286V7.92L37.1086 15.72H44.0926ZM54.7334 18.216C53.0534 18.216 51.5814 17.856 50.3174 17.136C49.0694 16.416 48.1094 15.4 47.4374 14.088C46.7654 12.76 46.4294 11.208 46.4294 9.432C46.4294 7.672 46.7654 6.136 47.4374 4.824C48.1094 3.496 49.0694 2.48 50.3174 1.776C51.5814 1.056 53.0534 0.696 54.7334 0.696C55.8854 0.696 56.9654 0.88 57.9734 1.248C58.9974 1.6 59.8454 2.096 60.5174 2.736L59.5094 4.992C58.7414 4.368 57.9734 3.92 57.2054 3.648C56.4534 3.36 55.6454 3.216 54.7814 3.216C53.1334 3.216 51.8534 3.752 50.9414 4.824C50.0454 5.896 49.5974 7.432 49.5974 9.432C49.5974 11.448 50.0454 13 50.9414 14.088C51.8374 15.16 53.1174 15.696 54.7814 15.696C55.6454 15.696 56.4534 15.56 57.2054 15.288C57.9734 15 58.7414 14.544 59.5094 13.92L60.5174 16.176C59.8454 16.816 58.9974 17.32 57.9734 17.688C56.9654 18.04 55.8854 18.216 54.7334 18.216ZM68.5768 18.192C67.3447 18.192 66.2567 17.936 65.3127 17.424C64.3847 16.912 63.6647 16.184 63.1527 15.24C62.6567 14.28 62.4087 13.16 62.4087 11.88C62.4087 10.6 62.6567 9.488 63.1527 8.544C63.6647 7.584 64.3847 6.848 65.3127 6.336C66.2567 5.824 67.3447 5.568 68.5768 5.568C69.7928 5.568 70.8648 5.824 71.7928 6.336C72.7208 6.848 73.4328 7.584 73.9288 8.544C74.4408 9.488 74.6968 10.6 74.6968 11.88C74.6968 13.16 74.4408 14.28 73.9288 15.24C73.4328 16.184 72.7208 16.912 71.7928 17.424C70.8648 17.936 69.7928 18.192 68.5768 18.192ZM68.5527 15.84C69.5767 15.84 70.3527 15.512 70.8807 14.856C71.4247 14.184 71.6967 13.192 71.6967 11.88C71.6967 10.584 71.4247 9.6 70.8807 8.928C70.3368 8.24 69.5688 7.896 68.5768 7.896C67.5687 7.896 66.7927 8.24 66.2487 8.928C65.7047 9.6 65.4327 10.584 65.4327 11.88C65.4327 13.192 65.6967 14.184 66.2247 14.856C66.7687 15.512 67.5447 15.84 68.5527 15.84ZM88.4439 5.88V18H85.5159V16.128C85.1319 16.8 84.6199 17.312 83.9799 17.664C83.3399 18.016 82.6039 18.192 81.7719 18.192C78.8119 18.192 77.3319 16.528 77.3319 13.2V5.88H80.3079V13.224C80.3079 14.104 80.4839 14.752 80.8359 15.168C81.2039 15.584 81.7639 15.792 82.5159 15.792C83.3959 15.792 84.0999 15.504 84.6279 14.928C85.1559 14.352 85.4199 13.584 85.4199 12.624V5.88H88.4439ZM98.3488 5.592C98.8128 5.592 99.2128 5.656 99.5488 5.784L99.5248 8.52C99.0128 8.312 98.4848 8.208 97.9408 8.208C96.9168 8.208 96.1328 8.504 95.5888 9.096C95.0608 9.688 94.7968 10.472 94.7968 11.448V18H91.8208V9.312C91.8208 8.032 91.7568 6.888 91.6288 5.88H94.4368L94.6768 8.016C94.9808 7.232 95.4608 6.632 96.1168 6.216C96.7728 5.8 97.5168 5.592 98.3488 5.592ZM105.662 18.192C103.47 18.192 101.726 17.68 100.43 16.656L101.27 14.544C102.566 15.504 104.046 15.984 105.71 15.984C106.43 15.984 106.982 15.864 107.366 15.624C107.766 15.384 107.966 15.048 107.966 14.616C107.966 14.248 107.83 13.96 107.558 13.752C107.286 13.528 106.822 13.336 106.166 13.176L104.15 12.72C101.942 12.24 100.838 11.112 100.838 9.336C100.838 8.6 101.046 7.952 101.462 7.392C101.878 6.816 102.462 6.368 103.214 6.048C103.966 5.728 104.838 5.568 105.83 5.568C106.694 5.568 107.526 5.704 108.326 5.976C109.126 6.232 109.83 6.608 110.438 7.104L109.55 9.144C108.334 8.248 107.086 7.8 105.806 7.8C105.118 7.8 104.582 7.928 104.198 8.184C103.814 8.44 103.622 8.792 103.622 9.24C103.622 9.592 103.734 9.872 103.958 10.08C104.198 10.288 104.598 10.464 105.158 10.608L107.222 11.064C108.422 11.336 109.294 11.76 109.838 12.336C110.398 12.896 110.678 13.632 110.678 14.544C110.678 15.664 110.23 16.552 109.334 17.208C108.438 17.864 107.214 18.192 105.662 18.192ZM123.973 12.096H115.621C115.685 13.392 116.005 14.352 116.581 14.976C117.173 15.584 118.045 15.888 119.197 15.888C120.525 15.888 121.757 15.456 122.893 14.592L123.757 16.656C123.181 17.12 122.469 17.496 121.621 17.784C120.789 18.056 119.941 18.192 119.077 18.192C117.093 18.192 115.533 17.632 114.397 16.512C113.261 15.392 112.693 13.856 112.693 11.904C112.693 10.672 112.941 9.576 113.437 8.616C113.933 7.656 114.629 6.912 115.525 6.384C116.421 5.84 117.437 5.568 118.573 5.568C120.237 5.568 121.549 6.112 122.509 7.2C123.485 8.272 123.973 9.752 123.973 11.64V12.096ZM118.645 7.728C117.845 7.728 117.189 7.968 116.677 8.448C116.181 8.912 115.861 9.592 115.717 10.488H121.357C121.261 9.576 120.981 8.888 120.517 8.424C120.069 7.96 119.445 7.728 118.645 7.728Z" fill="#11142D"/>
</svg>
